<svg xmlns="http://www.w3.org/2000/svg" viewBox="0 0 64 64">
  <defs>
    <linearGradient id="bg" x1="0%" y1="0%" x2="0%" y2="100%">
      <stop offset="0%" stop-color="#2b0a00" />
      <stop offset="100%" stop-color="#641400" />
    </linearGradient>
    <linearGradient id="flameOuter" x1="50%" y1="0%" x2="50%" y2="100%">
      <stop offset="0%" stop-color="#ffd24a" />
      <stop offset="55%" stop-color="#ff8a00" />
      <stop offset="100%" stop-color="#e03200" />
    </linearGradient>
    <linearGradient id="flameInner" x1="50%" y1="0%" x2="50%" y2="100%">
      <stop offset="0%" stop-color="#fff3b0" />
      <stop offset="100%" stop-color="#ffb200" />
    </linearGradient>
  </defs>
  <rect width="64" height="64" rx="14" fill="url(#bg)" />
  <path
    fill="url(#flameOuter)"
    d="M32 6c6 8 15 13 15 24 0 9-7 18-15 24-8-6-15-15-15-24 0-8 5-14 10-19-1 5 2 9 5 11 2-5 1-10 0-16Z"
  />
  <path
    fill="url(#flameInner)"
    d="M32 22c3 4 7 7 7 12 0 5-3 10-7 14-4-4-7-9-7-14 0-4 2-7 4-10 0 3 1 5 3 6 1-2 1-5 0-8Z"
  />
</svg>
